<svg width="1182px" height="371px" viewBox="0 0 1182 371" version="1.1" xmlns="http://www.w3.org/2000/svg" xmlns:xlink="http://www.w3.org/1999/xlink">
    <g stroke="none" stroke-width="1" fill="none" fill-rule="evenodd">
        <g fill="#EF5753">
            <g transform="translate(454.000000, 22.000000)" fill-rule="nonzero">
                <g>
                    <path d="M61.9999965,106.500002 C62.0080915,89.1251635 48.0765093,75.0000035 31.0040475,75.0000035 C13.9558708,74.9918996 -0.00809153284,89.1008517 3.51781281e-06,106.524314 C0.0161936191,123.87484 13.8992055,137.975688 31.0283327,138 C48.0765093,138 61.9676163,123.866736 61.9999965,106.500002 Z M31.0121426,124.490739 C21.1928461,124.482635 13.2516014,116.435427 13.2435064,106.483794 C13.2758866,96.5645765 21.2090362,88.4930565 31.0121426,88.4930565 C40.7504885,88.4768486 48.7160184,96.5726805 48.7160184,106.524314 C48.6998283,116.427323 40.7504885,124.531259 31.0121426,124.490739 Z"></path>
                    <path d="M100.995933,202 C83.9343977,202 70.0081014,216.149473 70,233.483792 C70.0162028,250.874839 83.9181949,265 101.012136,265 C118.106078,265 132.024272,250.866735 131.999968,233.516208 C132.016171,216.149473 118.097976,202 100.995933,202 Z M100.995933,251.490738 C91.2013481,251.482634 83.2943875,243.44353 83.2943875,233.508104 C83.2781848,223.572678 91.2094495,215.501158 101.012136,215.501158 C110.814823,215.501158 118.786595,223.588886 118.754189,233.532416 C118.76229,243.44353 110.79862,251.531258 100.995933,251.490738 Z"></path>
                    <path d="M94,169.532416 C93.9757148,152.157584 80.0927014,138.016222 63.0040475,138.000014 C45.9153937,137.983806 32,152.14948 32,169.548624 C32,186.899143 45.9072986,201.016194 63.0121426,200.999986 C80.0684162,200.991882 93.9757148,186.907247 94,169.532416 Z M63.0040475,187.523146 C53.2009401,187.563666 45.2839796,179.435421 45.3082648,169.5 C45.2596945,159.58889 53.2009401,151.484958 62.9716673,151.501166 C72.7585847,151.501166 80.6998303,159.548371 80.6755451,169.483792 C80.6755451,179.419213 72.7342995,187.523146 63.0040475,187.523146 Z"></path>
                    <path d="M100.983833,138 C118.102613,138 131.983798,123.8803 131.999986,106.560784 C132.016174,89.1845614 118.062143,75.0000554 100.983833,75.0000554 C83.9298056,74.9676522 70.0162444,89.160259 70.0000564,106.52028 C69.9676804,123.8803 83.8812417,138 100.983833,138 Z M100.967645,88.4878923 C110.777556,88.4878923 118.709662,96.6210985 118.742038,106.544582 C118.72585,116.419461 110.753274,124.512163 100.983833,124.504062 C91.1982046,124.544566 83.2822867,116.451864 83.2822867,106.52028 C83.3065687,96.5643929 91.1982046,88.5445979 100.967645,88.4878923 Z"></path>
                    <path d="M131.951411,138 C114.888454,138.032391 101,152.122365 101,169.491902 C101,186.812853 114.864159,200.951414 131.983804,201 C149.046761,200.983805 162.967607,186.885733 163,169.508098 C162.951411,152.154756 149.062957,138.032391 131.951411,138 Z M131.935214,187.509254 C122.160658,187.517352 114.248694,179.419666 114.281087,169.459512 C114.281087,159.572237 122.176855,151.523136 131.983804,151.523136 C141.742163,151.490746 149.727011,159.52365 149.710815,169.5 C149.727011,179.419666 141.758359,187.509254 131.935214,187.509254 Z"></path>
                    <path d="M169.967635,75.0000557 C152.928988,74.9676317 139.016253,89.0964078 139.000056,106.4838 C138.967664,123.863086 152.880399,137.991863 169.967635,137.999969 C187.095363,138.024287 200.983804,123.903617 201,106.540542 C201,89.1531499 187.06297,75.0000557 169.967635,75.0000557 Z M169.983832,124.543991 C160.193088,124.495355 152.264935,116.437981 152.264935,106.508118 C152.297328,96.5701494 160.209285,88.464139 169.983832,88.504669 C179.790772,88.504669 187.702729,96.5782554 187.751318,106.540542 C187.727024,116.437981 179.742182,124.568309 169.983832,124.543991 Z"></path>
                    <path d="M97.356408,65.0865946 C98.3584312,65.7009204 99.5559711,65.9676671 100.696485,66 C101.828853,65.9838335 103.050833,65.6685874 104.101735,65.0704282 L126.716503,51.4420967 C129.901796,49.5182872 130.952699,45.3796717 129.054557,42.1625448 C127.148269,39.018167 123.075004,37.9754299 119.889711,39.8426568 L107.335908,47.4085632 L107.368494,6.72564969 C107.352201,2.9992791 104.370571,-0.0238501794 100.680192,0.000399520738 C97.0224002,-0.0400166461 94.0244771,2.99119587 94.0489167,6.72564969 L94.0000375,59.2585834 C93.991891,61.6916366 95.3116289,63.954942 97.356408,65.0865946 Z"></path>
                </g>
            </g>
            <path d="M182.02,94.38 C189.113369,94.38 194.813312,96.4066464 199.12,100.46 C203.426688,104.513354 205.58,109.959966 205.58,116.8 L205.58,266.9 C205.58,296.033479 197.473414,318.073259 181.26,333.02 C165.046586,347.966741 141.106825,355.44 109.44,355.44 C81.8265286,355.44 58.7734258,350.246719 40.28,339.86 C30.9066198,334.286639 26.22,327.573373 26.22,319.72 C26.22,314.146639 27.5499867,309.71335 30.21,306.42 C32.8700133,303.12665 36.3533118,301.48 40.66,301.48 C42.9400114,301.48 45.7266502,302.049994 49.02,303.19 C52.3133498,304.330006 55.7333156,305.659992 59.28,307.18 C68.4000456,310.980019 76.5699639,313.893323 83.79,315.92 C91.0100361,317.946677 99.3066198,318.96 108.68,318.96 C141.866833,318.96 158.46,302.746829 158.46,270.32 L158.46,246 C152.886639,256.386719 144.780053,264.429971 134.14,270.13 C123.499947,275.830029 111.340068,278.68 97.66,278.68 C81.4465856,278.68 67.0700627,274.816705 54.53,267.09 C41.9899373,259.363295 32.1733688,248.533403 25.08,234.6 C17.9866312,220.666597 14.44,204.580091 14.44,186.34 C14.44,168.099909 17.9232985,151.95007 24.89,137.89 C31.8567015,123.82993 41.67327,112.936705 54.34,105.21 C67.00673,97.4832947 81.4465856,93.62 97.66,93.62 C111.340068,93.62 123.499947,96.4699715 134.14,102.17 C144.780053,107.870028 152.886639,115.913281 158.46,126.3 L158.46,116.42 C158.46,109.8333 160.613312,104.513354 164.92,100.46 C169.226688,96.4066464 174.926631,94.38 182.02,94.38 Z M110.2,241.82 C125.400076,241.82 137.243291,236.880049 145.73,227 C154.216709,217.119951 158.46,203.566753 158.46,186.34 C158.46,168.859913 154.216709,155.180049 145.73,145.3 C137.243291,135.419951 125.400076,130.48 110.2,130.48 C95.2532586,130.48 83.4733764,135.419951 74.86,145.3 C66.2466236,155.180049 61.94,168.859913 61.94,186.34 C61.94,203.566753 66.2466236,217.119951 74.86,227 C83.4733764,236.880049 95.2532586,241.82 110.2,241.82 Z M339.34,287.04 C320.339905,287.04 303.683405,283.113373 289.37,275.26 C275.056595,267.406627 263.973373,256.133407 256.12,241.44 C248.266627,226.746593 244.34,209.646764 244.34,190.14 C244.34,170.633236 248.266627,153.59674 256.12,139.03 C263.973373,124.46326 275.056595,113.253373 289.37,105.4 C303.683405,97.5466274 320.339905,93.62 339.34,93.62 C358.340095,93.62 374.996595,97.5466274 389.31,105.4 C403.623405,113.253373 414.643295,124.46326 422.37,139.03 C430.096705,153.59674 433.96,170.633236 433.96,190.14 C433.96,209.646764 430.096705,226.746593 422.37,241.44 C414.643295,256.133407 403.623405,267.406627 389.31,275.26 C374.996595,283.113373 358.340095,287.04 339.34,287.04 Z M338.96,250.18 C354.413411,250.18 366.193293,245.113384 374.3,234.98 C382.406707,224.846616 386.46,209.900099 386.46,190.14 C386.46,170.633236 382.406707,155.750051 374.3,145.49 C366.193293,135.229949 354.540076,130.1 339.34,130.1 C324.139924,130.1 312.423375,135.229949 304.19,145.49 C295.956626,155.750051 291.84,170.633236 291.84,190.14 C291.84,209.900099 295.893293,224.846616 304,234.98 C312.106707,245.113384 323.759924,250.18 338.96,250.18 Z"></path>
            <path d="M708.26,287.28 C701.419966,287.28 695.783355,285.316686 691.35,281.39 C686.916644,277.463314 684.7,271.826703 684.7,264.48 L684.7,117.8 C684.7,110.453297 686.916644,104.880019 691.35,101.08 C695.783355,97.279981 701.419966,95.38 708.26,95.38 C715.100034,95.38 720.799977,97.279981 725.36,101.08 C729.920023,104.880019 732.2,110.453297 732.2,117.8 L732.2,264.48 C732.2,271.826703 729.920023,277.463314 725.36,281.39 C720.799977,285.316686 715.100034,287.28 708.26,287.28 Z M708.26,61.56 C699.646624,61.56 692.806692,59.2166901 687.74,54.53 C682.673308,49.8433099 680.14,43.700038 680.14,36.1 C680.14,28.499962 682.673308,22.4200228 687.74,17.86 C692.806692,13.2999772 699.646624,11.02 708.26,11.02 C716.620042,11.02 723.396641,13.2999772 728.59,17.86 C733.783359,22.4200228 736.38,28.499962 736.38,36.1 C736.38,43.700038 733.846692,49.8433099 728.78,54.53 C723.713308,59.2166901 716.873376,61.56 708.26,61.56 Z M889.14,94.62 C911.433445,94.62 928.026612,100.95327 938.92,113.62 C949.813388,126.28673 955.26,145.413205 955.26,171 L955.26,264.48 C955.26,271.573369 953.170021,277.146646 948.99,281.2 C944.809979,285.253354 939.046703,287.28 931.7,287.28 C924.353297,287.28 918.526688,285.253354 914.22,281.2 C909.913312,277.146646 907.76,271.573369 907.76,264.48 L907.76,173.66 C907.76,159.219928 905.036694,148.7067 899.59,142.12 C894.143306,135.5333 885.593392,132.24 873.94,132.24 C860.259932,132.24 849.303375,136.546624 841.07,145.16 C832.836625,153.773376 828.72,165.299928 828.72,179.74 L828.72,264.48 C828.72,271.573369 826.566688,277.146646 822.26,281.2 C817.953312,285.253354 812.126703,287.28 804.78,287.28 C797.433297,287.28 791.670021,285.253354 787.49,281.2 C783.309979,277.146646 781.22,271.573369 781.22,264.48 L781.22,117.42 C781.22,110.8333 783.373312,105.513354 787.68,101.46 C791.986688,97.4066464 797.813297,95.38 805.16,95.38 C811.7467,95.38 817.129979,97.3433137 821.31,101.27 C825.490021,105.196686 827.58,110.326635 827.58,116.66 L827.58,126.92 C833.913365,116.533281 842.399947,108.553361 853.04,102.98 C863.680053,97.4066388 875.713266,94.62 889.14,94.62 Z M1150.2,95.38 C1157.5467,95.38 1163.37331,97.4066464 1167.68,101.46 C1171.98669,105.513354 1174.14,110.959966 1174.14,117.8 L1174.14,265.24 C1174.14,271.8267 1171.92336,277.146646 1167.49,281.2 C1163.05664,285.253354 1157.29337,287.28 1150.2,287.28 C1143.35997,287.28 1137.91335,285.380019 1133.86,281.58 C1129.80665,277.779981 1127.78,272.5867 1127.78,266 L1127.78,256.5 C1121.9533,266.633384 1114.10005,274.423306 1104.22,279.87 C1094.33995,285.316694 1083.1934,288.04 1070.78,288.04 C1025.17977,288.04 1002.38,262.453589 1002.38,211.28 L1002.38,117.8 C1002.38,110.959966 1004.53331,105.513354 1008.84,101.46 C1013.14669,97.4066464 1018.84663,95.38 1025.94,95.38 C1033.2867,95.38 1039.11331,97.4066464 1043.42,101.46 C1047.72669,105.513354 1049.88,110.959966 1049.88,117.8 L1049.88,211.66 C1049.88,224.833399 1052.53997,234.586635 1057.86,240.92 C1063.18003,247.253365 1071.53994,250.42 1082.94,250.42 C1096.1134,250.42 1106.68996,246.050044 1114.67,237.31 C1122.65004,228.569956 1126.64,216.980072 1126.64,202.54 L1126.64,117.8 C1126.64,110.959966 1128.79331,105.513354 1133.1,101.46 C1137.40669,97.4066464 1143.10663,95.38 1150.2,95.38 Z"></path>
            <circle cx="485" cy="128" r="27"></circle>
            <circle cx="554" cy="128" r="27"></circle>
            <circle cx="624" cy="128" r="27"></circle>
            <circle cx="517" cy="192" r="27"></circle>
            <circle cx="586" cy="192" r="27"></circle>
            <circle cx="556" cy="256" r="27"></circle>
        </g>
    </g>
</svg>